<mxfile host="Electron" agent="Mozilla/5.0 (Windows NT 10.0; Win64; x64) AppleWebKit/537.36 (KHTML, like Gecko) draw.io/24.7.5 Chrome/126.0.6478.183 Electron/31.3.0 Safari/537.36" version="24.7.5" pages="6">
  <diagram name="Page-1" id="-H_mtQnk-PTXWXPvYvuk">
    <mxGraphModel dx="1434" dy="854" grid="1" gridSize="10" guides="1" tooltips="1" connect="1" arrows="1" fold="1" page="1" pageScale="1" pageWidth="1169" pageHeight="827" math="0" shadow="0">
      <root>
        <mxCell id="0" />
        <mxCell id="1" parent="0" />
        <mxCell id="zA23MoTUsTF4_91t8viU-2" value="MongoDB" style="shape=cylinder3;whiteSpace=wrap;html=1;boundedLbl=1;backgroundOutline=1;size=15;" parent="1" vertex="1">
          <mxGeometry x="280" y="280" width="60" height="80" as="geometry" />
        </mxCell>
        <mxCell id="zA23MoTUsTF4_91t8viU-3" value="pymongo-api" style="rounded=1;whiteSpace=wrap;html=1;" parent="1" vertex="1">
          <mxGeometry x="80" y="290" width="120" height="60" as="geometry" />
        </mxCell>
        <mxCell id="zA23MoTUsTF4_91t8viU-4" style="edgeStyle=orthogonalEdgeStyle;rounded=0;orthogonalLoop=1;jettySize=auto;html=1;exitX=1;exitY=0.5;exitDx=0;exitDy=0;entryX=0;entryY=0.5;entryDx=0;entryDy=0;entryPerimeter=0;" parent="1" source="zA23MoTUsTF4_91t8viU-3" target="zA23MoTUsTF4_91t8viU-2" edge="1">
          <mxGeometry relative="1" as="geometry" />
        </mxCell>
      </root>
    </mxGraphModel>
  </diagram>
  <diagram name="1 - Шардирование" id="7-4c68S42nUfDM8OHw_b">
    <mxGraphModel dx="1434" dy="854" grid="1" gridSize="10" guides="1" tooltips="1" connect="1" arrows="1" fold="1" page="1" pageScale="1" pageWidth="1169" pageHeight="827" math="0" shadow="0">
      <root>
        <mxCell id="ZkZvD_9951UPTpdVoU89-0" />
        <mxCell id="ZkZvD_9951UPTpdVoU89-1" parent="ZkZvD_9951UPTpdVoU89-0" />
        <mxCell id="ESrFVKRT0GWEcb3kkbmS-1" style="edgeStyle=orthogonalEdgeStyle;rounded=0;orthogonalLoop=1;jettySize=auto;html=1;exitX=1;exitY=0.5;exitDx=0;exitDy=0;entryX=0;entryY=0.5;entryDx=0;entryDy=0;" parent="ZkZvD_9951UPTpdVoU89-1" source="ZkZvD_9951UPTpdVoU89-3" target="ESrFVKRT0GWEcb3kkbmS-0" edge="1">
          <mxGeometry relative="1" as="geometry" />
        </mxCell>
        <mxCell id="ZkZvD_9951UPTpdVoU89-3" value="pymongo-api" style="rounded=1;whiteSpace=wrap;html=1;" parent="ZkZvD_9951UPTpdVoU89-1" vertex="1">
          <mxGeometry x="80" y="290" width="120" height="60" as="geometry" />
        </mxCell>
        <mxCell id="ESrFVKRT0GWEcb3kkbmS-7" style="edgeStyle=orthogonalEdgeStyle;rounded=0;orthogonalLoop=1;jettySize=auto;html=1;exitX=1;exitY=0.5;exitDx=0;exitDy=0;entryX=0;entryY=0.5;entryDx=0;entryDy=0;" parent="ZkZvD_9951UPTpdVoU89-1" source="ESrFVKRT0GWEcb3kkbmS-0" target="ESrFVKRT0GWEcb3kkbmS-2" edge="1">
          <mxGeometry relative="1" as="geometry" />
        </mxCell>
        <mxCell id="ESrFVKRT0GWEcb3kkbmS-8" style="edgeStyle=orthogonalEdgeStyle;rounded=0;orthogonalLoop=1;jettySize=auto;html=1;exitX=1;exitY=0.5;exitDx=0;exitDy=0;entryX=0;entryY=0.5;entryDx=0;entryDy=0;" parent="ZkZvD_9951UPTpdVoU89-1" source="ESrFVKRT0GWEcb3kkbmS-0" target="ESrFVKRT0GWEcb3kkbmS-3" edge="1">
          <mxGeometry relative="1" as="geometry" />
        </mxCell>
        <mxCell id="ESrFVKRT0GWEcb3kkbmS-0" value="Mongos (mongos_router)" style="rounded=1;whiteSpace=wrap;html=1;" parent="ZkZvD_9951UPTpdVoU89-1" vertex="1">
          <mxGeometry x="280" y="290" width="120" height="60" as="geometry" />
        </mxCell>
        <mxCell id="ESrFVKRT0GWEcb3kkbmS-2" value="" style="rounded=1;whiteSpace=wrap;html=1;" parent="ZkZvD_9951UPTpdVoU89-1" vertex="1">
          <mxGeometry x="480" y="172.5" width="120" height="107.5" as="geometry" />
        </mxCell>
        <mxCell id="ZkZvD_9951UPTpdVoU89-2" value="MongoDB" style="shape=cylinder3;whiteSpace=wrap;html=1;boundedLbl=1;backgroundOutline=1;size=15;" parent="ZkZvD_9951UPTpdVoU89-1" vertex="1">
          <mxGeometry x="510" y="186.25" width="60" height="80" as="geometry" />
        </mxCell>
        <mxCell id="ESrFVKRT0GWEcb3kkbmS-3" value="" style="rounded=1;whiteSpace=wrap;html=1;" parent="ZkZvD_9951UPTpdVoU89-1" vertex="1">
          <mxGeometry x="480" y="362" width="120" height="102.5" as="geometry" />
        </mxCell>
        <mxCell id="ESrFVKRT0GWEcb3kkbmS-4" value="MongoDB" style="shape=cylinder3;whiteSpace=wrap;html=1;boundedLbl=1;backgroundOutline=1;size=15;" parent="ZkZvD_9951UPTpdVoU89-1" vertex="1">
          <mxGeometry x="510" y="374.5" width="60" height="80" as="geometry" />
        </mxCell>
        <mxCell id="lg1yzIzaV_X8cv4Pz-y9-1" style="edgeStyle=orthogonalEdgeStyle;rounded=0;orthogonalLoop=1;jettySize=auto;html=1;exitX=0.5;exitY=0;exitDx=0;exitDy=0;entryX=0.5;entryY=1;entryDx=0;entryDy=0;" parent="ZkZvD_9951UPTpdVoU89-1" source="lg1yzIzaV_X8cv4Pz-y9-0" target="ESrFVKRT0GWEcb3kkbmS-0" edge="1">
          <mxGeometry relative="1" as="geometry" />
        </mxCell>
        <mxCell id="lg1yzIzaV_X8cv4Pz-y9-0" value="Config server (configSrv)" style="rounded=1;whiteSpace=wrap;html=1;" parent="ZkZvD_9951UPTpdVoU89-1" vertex="1">
          <mxGeometry x="280" y="440" width="120" height="60" as="geometry" />
        </mxCell>
        <mxCell id="WcTI7tFegG1yOSjogL2Y-0" value="shard1" style="text;whiteSpace=wrap;fontStyle=1" vertex="1" parent="ZkZvD_9951UPTpdVoU89-1">
          <mxGeometry x="500" y="142.5" width="70" height="30" as="geometry" />
        </mxCell>
        <mxCell id="WcTI7tFegG1yOSjogL2Y-1" value="shard2" style="text;whiteSpace=wrap;fontStyle=1" vertex="1" parent="ZkZvD_9951UPTpdVoU89-1">
          <mxGeometry x="500" y="332" width="70" height="30" as="geometry" />
        </mxCell>
      </root>
    </mxGraphModel>
  </diagram>
  <diagram name="2 - Репликация" id="F1K_HIo63ZDipTtCkkn7">
    <mxGraphModel dx="1434" dy="854" grid="1" gridSize="10" guides="1" tooltips="1" connect="1" arrows="1" fold="1" page="1" pageScale="1" pageWidth="1169" pageHeight="827" math="0" shadow="0">
      <root>
        <mxCell id="ONEh5N8fJs7M1nque1yd-0" />
        <mxCell id="ONEh5N8fJs7M1nque1yd-1" parent="ONEh5N8fJs7M1nque1yd-0" />
        <mxCell id="ONEh5N8fJs7M1nque1yd-2" style="edgeStyle=orthogonalEdgeStyle;rounded=0;orthogonalLoop=1;jettySize=auto;html=1;exitX=1;exitY=0.5;exitDx=0;exitDy=0;entryX=0;entryY=0.5;entryDx=0;entryDy=0;" parent="ONEh5N8fJs7M1nque1yd-1" source="ONEh5N8fJs7M1nque1yd-3" target="ONEh5N8fJs7M1nque1yd-6" edge="1">
          <mxGeometry relative="1" as="geometry" />
        </mxCell>
        <mxCell id="ONEh5N8fJs7M1nque1yd-3" value="pymongo-api" style="rounded=1;whiteSpace=wrap;html=1;" parent="ONEh5N8fJs7M1nque1yd-1" vertex="1">
          <mxGeometry x="80" y="290" width="120" height="60" as="geometry" />
        </mxCell>
        <mxCell id="ONEh5N8fJs7M1nque1yd-4" style="edgeStyle=orthogonalEdgeStyle;rounded=0;orthogonalLoop=1;jettySize=auto;html=1;exitX=1;exitY=0.5;exitDx=0;exitDy=0;entryX=0;entryY=0.5;entryDx=0;entryDy=0;" parent="ONEh5N8fJs7M1nque1yd-1" source="ONEh5N8fJs7M1nque1yd-6" target="ONEh5N8fJs7M1nque1yd-7" edge="1">
          <mxGeometry relative="1" as="geometry" />
        </mxCell>
        <mxCell id="qPaiinSWtX_maYGTe6L7-14" style="edgeStyle=orthogonalEdgeStyle;rounded=0;orthogonalLoop=1;jettySize=auto;html=1;exitX=1;exitY=0.5;exitDx=0;exitDy=0;entryX=0;entryY=0.5;entryDx=0;entryDy=0;" parent="ONEh5N8fJs7M1nque1yd-1" source="ONEh5N8fJs7M1nque1yd-6" target="qPaiinSWtX_maYGTe6L7-6" edge="1">
          <mxGeometry relative="1" as="geometry" />
        </mxCell>
        <mxCell id="ONEh5N8fJs7M1nque1yd-6" value="Mongos (mongos_router)" style="rounded=1;whiteSpace=wrap;html=1;" parent="ONEh5N8fJs7M1nque1yd-1" vertex="1">
          <mxGeometry x="280" y="290" width="120" height="60" as="geometry" />
        </mxCell>
        <mxCell id="ONEh5N8fJs7M1nque1yd-7" value="" style="rounded=1;whiteSpace=wrap;html=1;" parent="ONEh5N8fJs7M1nque1yd-1" vertex="1">
          <mxGeometry x="480" y="120" width="340" height="210" as="geometry" />
        </mxCell>
        <mxCell id="ONEh5N8fJs7M1nque1yd-11" value="&lt;div style=&quot;text-align: left;&quot;&gt;&lt;pre style=&quot;background-color: rgb(255, 255, 255); font-family: Consolas, monospace;&quot;&gt;&lt;span style=&quot;background-color:#f7faff;&quot;&gt;rs0&lt;/span&gt;&lt;/pre&gt;&lt;/div&gt;" style="text;html=1;align=center;verticalAlign=middle;whiteSpace=wrap;rounded=0;fontStyle=1" parent="ONEh5N8fJs7M1nque1yd-1" vertex="1">
          <mxGeometry x="510" y="90" width="40" height="30" as="geometry" />
        </mxCell>
        <mxCell id="ONEh5N8fJs7M1nque1yd-12" value="&lt;div style=&quot;text-align: left;&quot;&gt;&lt;pre style=&quot;background-color: rgb(255, 255, 255); font-family: Consolas, monospace;&quot;&gt;&lt;span style=&quot;background-color:#f7faff;&quot;&gt;rs1&lt;/span&gt;&lt;/pre&gt;&lt;/div&gt;" style="text;html=1;align=center;verticalAlign=middle;whiteSpace=wrap;rounded=0;fontStyle=1" parent="ONEh5N8fJs7M1nque1yd-1" vertex="1">
          <mxGeometry x="510" y="350" width="30" height="30" as="geometry" />
        </mxCell>
        <mxCell id="qPaiinSWtX_maYGTe6L7-6" value="" style="rounded=1;whiteSpace=wrap;html=1;" parent="ONEh5N8fJs7M1nque1yd-1" vertex="1">
          <mxGeometry x="480" y="380" width="340" height="210" as="geometry" />
        </mxCell>
        <mxCell id="qPaiinSWtX_maYGTe6L7-7" style="edgeStyle=orthogonalEdgeStyle;rounded=0;orthogonalLoop=1;jettySize=auto;html=1;exitX=1;exitY=0.5;exitDx=0;exitDy=0;exitPerimeter=0;" parent="ONEh5N8fJs7M1nque1yd-1" source="qPaiinSWtX_maYGTe6L7-10" target="qPaiinSWtX_maYGTe6L7-11" edge="1">
          <mxGeometry relative="1" as="geometry" />
        </mxCell>
        <mxCell id="qPaiinSWtX_maYGTe6L7-9" style="edgeStyle=orthogonalEdgeStyle;rounded=0;orthogonalLoop=1;jettySize=auto;html=1;exitX=1;exitY=0.5;exitDx=0;exitDy=0;exitPerimeter=0;" parent="ONEh5N8fJs7M1nque1yd-1" source="qPaiinSWtX_maYGTe6L7-10" target="qPaiinSWtX_maYGTe6L7-12" edge="1">
          <mxGeometry relative="1" as="geometry" />
        </mxCell>
        <mxCell id="qPaiinSWtX_maYGTe6L7-10" value="shard2r1&lt;div&gt;(primary)&lt;br&gt;&lt;/div&gt;" style="shape=cylinder3;whiteSpace=wrap;html=1;boundedLbl=1;backgroundOutline=1;size=15;" parent="ONEh5N8fJs7M1nque1yd-1" vertex="1">
          <mxGeometry x="510" y="440" width="60" height="80" as="geometry" />
        </mxCell>
        <mxCell id="qPaiinSWtX_maYGTe6L7-11" value="shard2r2&lt;div&gt;(secondary)&lt;br&gt;&lt;/div&gt;" style="shape=cylinder3;whiteSpace=wrap;html=1;boundedLbl=1;backgroundOutline=1;size=15;" parent="ONEh5N8fJs7M1nque1yd-1" vertex="1">
          <mxGeometry x="640" y="390" width="60" height="80" as="geometry" />
        </mxCell>
        <mxCell id="qPaiinSWtX_maYGTe6L7-12" value="shard2r3&lt;div&gt;(secondary)&lt;br&gt;&lt;/div&gt;" style="shape=cylinder3;whiteSpace=wrap;html=1;boundedLbl=1;backgroundOutline=1;size=15;" parent="ONEh5N8fJs7M1nque1yd-1" vertex="1">
          <mxGeometry x="640" y="500" width="60" height="80" as="geometry" />
        </mxCell>
        <mxCell id="P7PhwVNTyzvYrP4fhcX0-2" style="edgeStyle=orthogonalEdgeStyle;rounded=0;orthogonalLoop=1;jettySize=auto;html=1;exitX=0.5;exitY=0;exitDx=0;exitDy=0;entryX=0.5;entryY=1;entryDx=0;entryDy=0;" parent="ONEh5N8fJs7M1nque1yd-1" source="P7PhwVNTyzvYrP4fhcX0-1" target="ONEh5N8fJs7M1nque1yd-6" edge="1">
          <mxGeometry relative="1" as="geometry" />
        </mxCell>
        <mxCell id="P7PhwVNTyzvYrP4fhcX0-1" value="Config server (configSrv)" style="rounded=1;whiteSpace=wrap;html=1;" parent="ONEh5N8fJs7M1nque1yd-1" vertex="1">
          <mxGeometry x="280" y="440" width="120" height="60" as="geometry" />
        </mxCell>
        <mxCell id="Dzcc_swdwAl2a6gMHQaa-6" style="edgeStyle=orthogonalEdgeStyle;rounded=0;orthogonalLoop=1;jettySize=auto;html=1;exitX=1;exitY=0;exitDx=0;exitDy=15;exitPerimeter=0;entryX=1;entryY=1;entryDx=0;entryDy=-15;entryPerimeter=0;dashed=1;startArrow=block;startFill=1;" parent="ONEh5N8fJs7M1nque1yd-1" edge="1">
          <mxGeometry relative="1" as="geometry">
            <mxPoint x="700" y="405" as="sourcePoint" />
            <mxPoint x="700" y="565" as="targetPoint" />
            <Array as="points">
              <mxPoint x="780" y="405" />
              <mxPoint x="780" y="565" />
            </Array>
          </mxGeometry>
        </mxCell>
        <mxCell id="cZhSnd-ae5h6c0UGQJ2v-0" style="edgeStyle=orthogonalEdgeStyle;rounded=0;orthogonalLoop=1;jettySize=auto;html=1;exitX=0;exitY=0;exitDx=0;exitDy=15;exitPerimeter=0;entryX=0.5;entryY=0;entryDx=0;entryDy=0;entryPerimeter=0;dashed=1;startArrow=classic;startFill=1;" edge="1" parent="ONEh5N8fJs7M1nque1yd-1" source="qPaiinSWtX_maYGTe6L7-11" target="qPaiinSWtX_maYGTe6L7-10">
          <mxGeometry relative="1" as="geometry" />
        </mxCell>
        <mxCell id="cZhSnd-ae5h6c0UGQJ2v-1" style="edgeStyle=orthogonalEdgeStyle;rounded=0;orthogonalLoop=1;jettySize=auto;html=1;exitX=0;exitY=1;exitDx=0;exitDy=-15;exitPerimeter=0;entryX=0.5;entryY=1;entryDx=0;entryDy=0;entryPerimeter=0;dashed=1;startArrow=classic;startFill=1;" edge="1" parent="ONEh5N8fJs7M1nque1yd-1" source="qPaiinSWtX_maYGTe6L7-12" target="qPaiinSWtX_maYGTe6L7-10">
          <mxGeometry relative="1" as="geometry" />
        </mxCell>
        <mxCell id="cZhSnd-ae5h6c0UGQJ2v-4" style="edgeStyle=orthogonalEdgeStyle;rounded=0;orthogonalLoop=1;jettySize=auto;html=1;exitX=1;exitY=0.5;exitDx=0;exitDy=0;exitPerimeter=0;" edge="1" parent="ONEh5N8fJs7M1nque1yd-1" source="cZhSnd-ae5h6c0UGQJ2v-6" target="cZhSnd-ae5h6c0UGQJ2v-7">
          <mxGeometry relative="1" as="geometry" />
        </mxCell>
        <mxCell id="cZhSnd-ae5h6c0UGQJ2v-5" style="edgeStyle=orthogonalEdgeStyle;rounded=0;orthogonalLoop=1;jettySize=auto;html=1;exitX=1;exitY=0.5;exitDx=0;exitDy=0;exitPerimeter=0;" edge="1" parent="ONEh5N8fJs7M1nque1yd-1" source="cZhSnd-ae5h6c0UGQJ2v-6" target="cZhSnd-ae5h6c0UGQJ2v-8">
          <mxGeometry relative="1" as="geometry" />
        </mxCell>
        <mxCell id="cZhSnd-ae5h6c0UGQJ2v-6" value="shard1r1&lt;div&gt;(primary)&lt;/div&gt;" style="shape=cylinder3;whiteSpace=wrap;html=1;boundedLbl=1;backgroundOutline=1;size=15;" vertex="1" parent="ONEh5N8fJs7M1nque1yd-1">
          <mxGeometry x="510" y="180" width="60" height="80" as="geometry" />
        </mxCell>
        <mxCell id="cZhSnd-ae5h6c0UGQJ2v-7" value="shard1r2&lt;div&gt;(secondary)&lt;/div&gt;" style="shape=cylinder3;whiteSpace=wrap;html=1;boundedLbl=1;backgroundOutline=1;size=15;" vertex="1" parent="ONEh5N8fJs7M1nque1yd-1">
          <mxGeometry x="640" y="130" width="60" height="80" as="geometry" />
        </mxCell>
        <mxCell id="cZhSnd-ae5h6c0UGQJ2v-8" value="shard1r3&lt;div&gt;(secondary)&lt;br&gt;&lt;/div&gt;" style="shape=cylinder3;whiteSpace=wrap;html=1;boundedLbl=1;backgroundOutline=1;size=15;" vertex="1" parent="ONEh5N8fJs7M1nque1yd-1">
          <mxGeometry x="640" y="240" width="60" height="80" as="geometry" />
        </mxCell>
        <mxCell id="cZhSnd-ae5h6c0UGQJ2v-9" style="edgeStyle=orthogonalEdgeStyle;rounded=0;orthogonalLoop=1;jettySize=auto;html=1;exitX=1;exitY=0;exitDx=0;exitDy=15;exitPerimeter=0;entryX=1;entryY=1;entryDx=0;entryDy=-15;entryPerimeter=0;dashed=1;startArrow=block;startFill=1;" edge="1" parent="ONEh5N8fJs7M1nque1yd-1">
          <mxGeometry relative="1" as="geometry">
            <mxPoint x="700" y="145" as="sourcePoint" />
            <mxPoint x="700" y="305" as="targetPoint" />
            <Array as="points">
              <mxPoint x="780" y="145" />
              <mxPoint x="780" y="305" />
            </Array>
          </mxGeometry>
        </mxCell>
        <mxCell id="cZhSnd-ae5h6c0UGQJ2v-11" style="edgeStyle=orthogonalEdgeStyle;rounded=0;orthogonalLoop=1;jettySize=auto;html=1;exitX=0;exitY=0;exitDx=0;exitDy=15;exitPerimeter=0;entryX=0.5;entryY=0;entryDx=0;entryDy=0;entryPerimeter=0;dashed=1;startArrow=classic;startFill=1;" edge="1" parent="ONEh5N8fJs7M1nque1yd-1" source="cZhSnd-ae5h6c0UGQJ2v-7" target="cZhSnd-ae5h6c0UGQJ2v-6">
          <mxGeometry relative="1" as="geometry" />
        </mxCell>
        <mxCell id="cZhSnd-ae5h6c0UGQJ2v-12" style="edgeStyle=orthogonalEdgeStyle;rounded=0;orthogonalLoop=1;jettySize=auto;html=1;exitX=0;exitY=1;exitDx=0;exitDy=-15;exitPerimeter=0;entryX=0.5;entryY=1;entryDx=0;entryDy=0;entryPerimeter=0;dashed=1;startArrow=classic;startFill=1;" edge="1" parent="ONEh5N8fJs7M1nque1yd-1" source="cZhSnd-ae5h6c0UGQJ2v-8" target="cZhSnd-ae5h6c0UGQJ2v-6">
          <mxGeometry relative="1" as="geometry" />
        </mxCell>
      </root>
    </mxGraphModel>
  </diagram>
  <diagram name="3 - Кэширование" id="fag86sG24j8vKrTCs-1R">
    <mxGraphModel dx="1434" dy="854" grid="1" gridSize="10" guides="1" tooltips="1" connect="1" arrows="1" fold="1" page="1" pageScale="1" pageWidth="1169" pageHeight="827" math="0" shadow="0">
      <root>
        <mxCell id="LS143JdaP3hYIYUhOYTz-0" />
        <mxCell id="LS143JdaP3hYIYUhOYTz-1" parent="LS143JdaP3hYIYUhOYTz-0" />
        <mxCell id="T2_bj2yjkGNKQZ3XvL_x-9" style="edgeStyle=orthogonalEdgeStyle;rounded=0;orthogonalLoop=1;jettySize=auto;html=1;exitX=1;exitY=0.25;exitDx=0;exitDy=0;entryX=0;entryY=0.25;entryDx=0;entryDy=0;startArrow=none;startFill=0;" parent="LS143JdaP3hYIYUhOYTz-1" source="LS143JdaP3hYIYUhOYTz-3" target="LS143JdaP3hYIYUhOYTz-6" edge="1">
          <mxGeometry relative="1" as="geometry" />
        </mxCell>
        <mxCell id="WKsbH0S-EO_lklvwSFkj-0" style="edgeStyle=orthogonalEdgeStyle;rounded=0;orthogonalLoop=1;jettySize=auto;html=1;exitX=1;exitY=0.5;exitDx=0;exitDy=0;entryX=0.5;entryY=0;entryDx=0;entryDy=0;" edge="1" parent="LS143JdaP3hYIYUhOYTz-1" source="LS143JdaP3hYIYUhOYTz-3" target="T2_bj2yjkGNKQZ3XvL_x-1">
          <mxGeometry relative="1" as="geometry" />
        </mxCell>
        <mxCell id="LS143JdaP3hYIYUhOYTz-3" value="pymongo-api" style="rounded=1;whiteSpace=wrap;html=1;" parent="LS143JdaP3hYIYUhOYTz-1" vertex="1">
          <mxGeometry x="80" y="290" width="120" height="60" as="geometry" />
        </mxCell>
        <mxCell id="LS143JdaP3hYIYUhOYTz-4" style="edgeStyle=orthogonalEdgeStyle;rounded=0;orthogonalLoop=1;jettySize=auto;html=1;exitX=1;exitY=0.5;exitDx=0;exitDy=0;entryX=0;entryY=0.5;entryDx=0;entryDy=0;" parent="LS143JdaP3hYIYUhOYTz-1" source="LS143JdaP3hYIYUhOYTz-6" target="wHB7no_Y4wB8fQleL0E7-0" edge="1">
          <mxGeometry relative="1" as="geometry">
            <mxPoint x="760" y="225" as="targetPoint" />
          </mxGeometry>
        </mxCell>
        <mxCell id="LS143JdaP3hYIYUhOYTz-5" style="edgeStyle=orthogonalEdgeStyle;rounded=0;orthogonalLoop=1;jettySize=auto;html=1;exitX=1;exitY=0.5;exitDx=0;exitDy=0;entryX=0;entryY=0.5;entryDx=0;entryDy=0;" parent="LS143JdaP3hYIYUhOYTz-1" source="LS143JdaP3hYIYUhOYTz-6" target="wHB7no_Y4wB8fQleL0E7-3" edge="1">
          <mxGeometry relative="1" as="geometry">
            <mxPoint x="760" y="485" as="targetPoint" />
          </mxGeometry>
        </mxCell>
        <mxCell id="LS143JdaP3hYIYUhOYTz-6" value="Mongos (mongos_router)" style="rounded=1;whiteSpace=wrap;html=1;" parent="LS143JdaP3hYIYUhOYTz-1" vertex="1">
          <mxGeometry x="560" y="290" width="120" height="60" as="geometry" />
        </mxCell>
        <mxCell id="LS143JdaP3hYIYUhOYTz-25" style="edgeStyle=orthogonalEdgeStyle;rounded=0;orthogonalLoop=1;jettySize=auto;html=1;exitX=0.5;exitY=0;exitDx=0;exitDy=0;entryX=0.5;entryY=1;entryDx=0;entryDy=0;" parent="LS143JdaP3hYIYUhOYTz-1" source="LS143JdaP3hYIYUhOYTz-26" target="LS143JdaP3hYIYUhOYTz-6" edge="1">
          <mxGeometry relative="1" as="geometry" />
        </mxCell>
        <mxCell id="LS143JdaP3hYIYUhOYTz-26" value="Config server (configSrv)" style="rounded=1;whiteSpace=wrap;html=1;" parent="LS143JdaP3hYIYUhOYTz-1" vertex="1">
          <mxGeometry x="560" y="440" width="120" height="60" as="geometry" />
        </mxCell>
        <mxCell id="T2_bj2yjkGNKQZ3XvL_x-1" value="redis1" style="rounded=1;whiteSpace=wrap;html=1;" parent="LS143JdaP3hYIYUhOYTz-1" vertex="1">
          <mxGeometry x="170" y="420" width="180" height="90" as="geometry" />
        </mxCell>
        <mxCell id="T2_bj2yjkGNKQZ3XvL_x-8" value="1. Поиск данных в кэше.&lt;div&gt;Если актуальные данные есть, возвращаем&amp;nbsp;&lt;span style=&quot;background-color: initial;&quot;&gt;их клиенту&lt;/span&gt;&lt;/div&gt;" style="text;html=1;align=left;verticalAlign=middle;whiteSpace=wrap;rounded=0;" parent="LS143JdaP3hYIYUhOYTz-1" vertex="1">
          <mxGeometry x="40" y="354" width="180" height="60" as="geometry" />
        </mxCell>
        <mxCell id="T2_bj2yjkGNKQZ3XvL_x-10" value="2. Чтение данных из БД, если данные в кэше отсутствуют или не актуальны, и возврат&amp;nbsp; их клиенту" style="text;html=1;align=left;verticalAlign=middle;whiteSpace=wrap;rounded=0;" parent="LS143JdaP3hYIYUhOYTz-1" vertex="1">
          <mxGeometry x="230" y="250" width="270" height="50" as="geometry" />
        </mxCell>
        <mxCell id="T2_bj2yjkGNKQZ3XvL_x-12" value="3. Обновление кэша, если данные в нём отсутствуют или не актуальны" style="text;html=1;align=left;verticalAlign=middle;whiteSpace=wrap;rounded=0;" parent="LS143JdaP3hYIYUhOYTz-1" vertex="1">
          <mxGeometry x="263" y="335" width="160" height="60" as="geometry" />
        </mxCell>
        <mxCell id="wHB7no_Y4wB8fQleL0E7-0" value="" style="rounded=1;whiteSpace=wrap;html=1;" vertex="1" parent="LS143JdaP3hYIYUhOYTz-1">
          <mxGeometry x="760" y="120" width="340" height="210" as="geometry" />
        </mxCell>
        <mxCell id="wHB7no_Y4wB8fQleL0E7-3" value="" style="rounded=1;whiteSpace=wrap;html=1;" vertex="1" parent="LS143JdaP3hYIYUhOYTz-1">
          <mxGeometry x="760" y="380" width="340" height="210" as="geometry" />
        </mxCell>
        <mxCell id="OfIjHcut5TpM0el13Qbv-0" value="&lt;div style=&quot;text-align: left;&quot;&gt;&lt;pre style=&quot;background-color: rgb(255, 255, 255); font-family: Consolas, monospace;&quot;&gt;&lt;span style=&quot;background-color:#f7faff;&quot;&gt;rs0&lt;/span&gt;&lt;/pre&gt;&lt;/div&gt;" style="text;html=1;align=center;verticalAlign=middle;whiteSpace=wrap;rounded=0;fontStyle=1" vertex="1" parent="LS143JdaP3hYIYUhOYTz-1">
          <mxGeometry x="795" y="90" width="40" height="30" as="geometry" />
        </mxCell>
        <mxCell id="OfIjHcut5TpM0el13Qbv-1" value="&lt;div style=&quot;text-align: left;&quot;&gt;&lt;pre style=&quot;background-color: rgb(255, 255, 255); font-family: Consolas, monospace;&quot;&gt;&lt;span style=&quot;background-color:#f7faff;&quot;&gt;rs1&lt;/span&gt;&lt;/pre&gt;&lt;/div&gt;" style="text;html=1;align=center;verticalAlign=middle;whiteSpace=wrap;rounded=0;fontStyle=1" vertex="1" parent="LS143JdaP3hYIYUhOYTz-1">
          <mxGeometry x="795" y="350" width="30" height="30" as="geometry" />
        </mxCell>
        <mxCell id="OfIjHcut5TpM0el13Qbv-2" style="edgeStyle=orthogonalEdgeStyle;rounded=0;orthogonalLoop=1;jettySize=auto;html=1;exitX=1;exitY=0.5;exitDx=0;exitDy=0;exitPerimeter=0;" edge="1" parent="LS143JdaP3hYIYUhOYTz-1" source="OfIjHcut5TpM0el13Qbv-4" target="OfIjHcut5TpM0el13Qbv-5">
          <mxGeometry relative="1" as="geometry" />
        </mxCell>
        <mxCell id="OfIjHcut5TpM0el13Qbv-3" style="edgeStyle=orthogonalEdgeStyle;rounded=0;orthogonalLoop=1;jettySize=auto;html=1;exitX=1;exitY=0.5;exitDx=0;exitDy=0;exitPerimeter=0;" edge="1" parent="LS143JdaP3hYIYUhOYTz-1" source="OfIjHcut5TpM0el13Qbv-4" target="OfIjHcut5TpM0el13Qbv-6">
          <mxGeometry relative="1" as="geometry" />
        </mxCell>
        <mxCell id="OfIjHcut5TpM0el13Qbv-4" value="shard2r1&lt;div&gt;(primary)&lt;br&gt;&lt;/div&gt;" style="shape=cylinder3;whiteSpace=wrap;html=1;boundedLbl=1;backgroundOutline=1;size=15;" vertex="1" parent="LS143JdaP3hYIYUhOYTz-1">
          <mxGeometry x="795" y="440" width="60" height="80" as="geometry" />
        </mxCell>
        <mxCell id="OfIjHcut5TpM0el13Qbv-5" value="shard2r2&lt;div&gt;(secondary)&lt;br&gt;&lt;/div&gt;" style="shape=cylinder3;whiteSpace=wrap;html=1;boundedLbl=1;backgroundOutline=1;size=15;" vertex="1" parent="LS143JdaP3hYIYUhOYTz-1">
          <mxGeometry x="925" y="390" width="60" height="80" as="geometry" />
        </mxCell>
        <mxCell id="OfIjHcut5TpM0el13Qbv-6" value="shard2r3&lt;div&gt;(secondary)&lt;br&gt;&lt;/div&gt;" style="shape=cylinder3;whiteSpace=wrap;html=1;boundedLbl=1;backgroundOutline=1;size=15;" vertex="1" parent="LS143JdaP3hYIYUhOYTz-1">
          <mxGeometry x="925" y="500" width="60" height="80" as="geometry" />
        </mxCell>
        <mxCell id="OfIjHcut5TpM0el13Qbv-7" style="edgeStyle=orthogonalEdgeStyle;rounded=0;orthogonalLoop=1;jettySize=auto;html=1;exitX=1;exitY=0;exitDx=0;exitDy=15;exitPerimeter=0;entryX=1;entryY=1;entryDx=0;entryDy=-15;entryPerimeter=0;dashed=1;startArrow=block;startFill=1;" edge="1" parent="LS143JdaP3hYIYUhOYTz-1">
          <mxGeometry relative="1" as="geometry">
            <mxPoint x="985" y="405" as="sourcePoint" />
            <mxPoint x="985" y="565" as="targetPoint" />
            <Array as="points">
              <mxPoint x="1065" y="405" />
              <mxPoint x="1065" y="565" />
            </Array>
          </mxGeometry>
        </mxCell>
        <mxCell id="OfIjHcut5TpM0el13Qbv-8" style="edgeStyle=orthogonalEdgeStyle;rounded=0;orthogonalLoop=1;jettySize=auto;html=1;exitX=0;exitY=0;exitDx=0;exitDy=15;exitPerimeter=0;entryX=0.5;entryY=0;entryDx=0;entryDy=0;entryPerimeter=0;dashed=1;startArrow=classic;startFill=1;" edge="1" parent="LS143JdaP3hYIYUhOYTz-1" source="OfIjHcut5TpM0el13Qbv-5" target="OfIjHcut5TpM0el13Qbv-4">
          <mxGeometry relative="1" as="geometry" />
        </mxCell>
        <mxCell id="OfIjHcut5TpM0el13Qbv-9" style="edgeStyle=orthogonalEdgeStyle;rounded=0;orthogonalLoop=1;jettySize=auto;html=1;exitX=0;exitY=1;exitDx=0;exitDy=-15;exitPerimeter=0;entryX=0.5;entryY=1;entryDx=0;entryDy=0;entryPerimeter=0;dashed=1;startArrow=classic;startFill=1;" edge="1" parent="LS143JdaP3hYIYUhOYTz-1" source="OfIjHcut5TpM0el13Qbv-6" target="OfIjHcut5TpM0el13Qbv-4">
          <mxGeometry relative="1" as="geometry" />
        </mxCell>
        <mxCell id="OfIjHcut5TpM0el13Qbv-10" style="edgeStyle=orthogonalEdgeStyle;rounded=0;orthogonalLoop=1;jettySize=auto;html=1;exitX=1;exitY=0.5;exitDx=0;exitDy=0;exitPerimeter=0;" edge="1" parent="LS143JdaP3hYIYUhOYTz-1" source="OfIjHcut5TpM0el13Qbv-12" target="OfIjHcut5TpM0el13Qbv-13">
          <mxGeometry relative="1" as="geometry" />
        </mxCell>
        <mxCell id="OfIjHcut5TpM0el13Qbv-11" style="edgeStyle=orthogonalEdgeStyle;rounded=0;orthogonalLoop=1;jettySize=auto;html=1;exitX=1;exitY=0.5;exitDx=0;exitDy=0;exitPerimeter=0;" edge="1" parent="LS143JdaP3hYIYUhOYTz-1" source="OfIjHcut5TpM0el13Qbv-12" target="OfIjHcut5TpM0el13Qbv-14">
          <mxGeometry relative="1" as="geometry" />
        </mxCell>
        <mxCell id="OfIjHcut5TpM0el13Qbv-12" value="shard1r1&lt;div&gt;(primary)&lt;/div&gt;" style="shape=cylinder3;whiteSpace=wrap;html=1;boundedLbl=1;backgroundOutline=1;size=15;" vertex="1" parent="LS143JdaP3hYIYUhOYTz-1">
          <mxGeometry x="795" y="180" width="60" height="80" as="geometry" />
        </mxCell>
        <mxCell id="OfIjHcut5TpM0el13Qbv-13" value="shard1r2&lt;div&gt;(secondary)&lt;/div&gt;" style="shape=cylinder3;whiteSpace=wrap;html=1;boundedLbl=1;backgroundOutline=1;size=15;" vertex="1" parent="LS143JdaP3hYIYUhOYTz-1">
          <mxGeometry x="925" y="130" width="60" height="80" as="geometry" />
        </mxCell>
        <mxCell id="OfIjHcut5TpM0el13Qbv-14" value="shard1r3&lt;div&gt;(secondary)&lt;br&gt;&lt;/div&gt;" style="shape=cylinder3;whiteSpace=wrap;html=1;boundedLbl=1;backgroundOutline=1;size=15;" vertex="1" parent="LS143JdaP3hYIYUhOYTz-1">
          <mxGeometry x="925" y="240" width="60" height="80" as="geometry" />
        </mxCell>
        <mxCell id="OfIjHcut5TpM0el13Qbv-15" style="edgeStyle=orthogonalEdgeStyle;rounded=0;orthogonalLoop=1;jettySize=auto;html=1;exitX=1;exitY=0;exitDx=0;exitDy=15;exitPerimeter=0;entryX=1;entryY=1;entryDx=0;entryDy=-15;entryPerimeter=0;dashed=1;startArrow=block;startFill=1;" edge="1" parent="LS143JdaP3hYIYUhOYTz-1">
          <mxGeometry relative="1" as="geometry">
            <mxPoint x="985" y="145" as="sourcePoint" />
            <mxPoint x="985" y="305" as="targetPoint" />
            <Array as="points">
              <mxPoint x="1065" y="145" />
              <mxPoint x="1065" y="305" />
            </Array>
          </mxGeometry>
        </mxCell>
        <mxCell id="OfIjHcut5TpM0el13Qbv-16" style="edgeStyle=orthogonalEdgeStyle;rounded=0;orthogonalLoop=1;jettySize=auto;html=1;exitX=0;exitY=0;exitDx=0;exitDy=15;exitPerimeter=0;entryX=0.5;entryY=0;entryDx=0;entryDy=0;entryPerimeter=0;dashed=1;startArrow=classic;startFill=1;" edge="1" parent="LS143JdaP3hYIYUhOYTz-1" source="OfIjHcut5TpM0el13Qbv-13" target="OfIjHcut5TpM0el13Qbv-12">
          <mxGeometry relative="1" as="geometry" />
        </mxCell>
        <mxCell id="OfIjHcut5TpM0el13Qbv-17" style="edgeStyle=orthogonalEdgeStyle;rounded=0;orthogonalLoop=1;jettySize=auto;html=1;exitX=0;exitY=1;exitDx=0;exitDy=-15;exitPerimeter=0;entryX=0.5;entryY=1;entryDx=0;entryDy=0;entryPerimeter=0;dashed=1;startArrow=classic;startFill=1;" edge="1" parent="LS143JdaP3hYIYUhOYTz-1" source="OfIjHcut5TpM0el13Qbv-14" target="OfIjHcut5TpM0el13Qbv-12">
          <mxGeometry relative="1" as="geometry" />
        </mxCell>
        <mxCell id="WKsbH0S-EO_lklvwSFkj-1" style="edgeStyle=orthogonalEdgeStyle;rounded=0;orthogonalLoop=1;jettySize=auto;html=1;exitX=1;exitY=0.75;exitDx=0;exitDy=0;entryX=0.3;entryY=0;entryDx=0;entryDy=0;entryPerimeter=0;" edge="1" parent="LS143JdaP3hYIYUhOYTz-1" source="LS143JdaP3hYIYUhOYTz-3" target="T2_bj2yjkGNKQZ3XvL_x-1">
          <mxGeometry relative="1" as="geometry" />
        </mxCell>
      </root>
    </mxGraphModel>
  </diagram>
  <diagram name="4 - Горизонт масштаб" id="v7ufeZPXXd8kmG9FB4gi">
    <mxGraphModel dx="1434" dy="854" grid="1" gridSize="10" guides="1" tooltips="1" connect="1" arrows="1" fold="1" page="1" pageScale="1" pageWidth="1169" pageHeight="827" math="0" shadow="0">
      <root>
        <mxCell id="SAZ4FYaPVu-vmmdpa9ke-0" />
        <mxCell id="SAZ4FYaPVu-vmmdpa9ke-1" parent="SAZ4FYaPVu-vmmdpa9ke-0" />
        <mxCell id="wob9f2ZelnJ6U86Qt2ua-4" style="edgeStyle=orthogonalEdgeStyle;rounded=0;orthogonalLoop=1;jettySize=auto;html=1;exitX=0.25;exitY=1;exitDx=0;exitDy=0;entryX=1;entryY=0.25;entryDx=0;entryDy=0;dashed=1;" parent="SAZ4FYaPVu-vmmdpa9ke-1" source="SAZ4FYaPVu-vmmdpa9ke-4" target="YLw-xi9G1kMh6d737cpB-3" edge="1">
          <mxGeometry relative="1" as="geometry" />
        </mxCell>
        <mxCell id="5n50C7AFKlHFFCoyw6Ub-0" style="edgeStyle=orthogonalEdgeStyle;rounded=0;orthogonalLoop=1;jettySize=auto;html=1;exitX=1;exitY=0.5;exitDx=0;exitDy=0;entryX=1;entryY=0.5;entryDx=0;entryDy=0;startArrow=classic;startFill=1;" parent="SAZ4FYaPVu-vmmdpa9ke-1" source="SAZ4FYaPVu-vmmdpa9ke-4" target="wob9f2ZelnJ6U86Qt2ua-5" edge="1">
          <mxGeometry relative="1" as="geometry" />
        </mxCell>
        <mxCell id="SAZ4FYaPVu-vmmdpa9ke-4" value="" style="rounded=1;whiteSpace=wrap;html=1;" parent="SAZ4FYaPVu-vmmdpa9ke-1" vertex="1">
          <mxGeometry x="570" y="100" width="370" height="180" as="geometry" />
        </mxCell>
        <mxCell id="YLw-xi9G1kMh6d737cpB-2" style="edgeStyle=orthogonalEdgeStyle;rounded=0;orthogonalLoop=1;jettySize=auto;html=1;exitX=1;exitY=0.5;exitDx=0;exitDy=0;entryX=0;entryY=0.5;entryDx=0;entryDy=0;" parent="SAZ4FYaPVu-vmmdpa9ke-1" source="YLw-xi9G1kMh6d737cpB-0" target="YLw-xi9G1kMh6d737cpB-1" edge="1">
          <mxGeometry relative="1" as="geometry" />
        </mxCell>
        <mxCell id="YLw-xi9G1kMh6d737cpB-0" value="Клиент" style="rounded=1;whiteSpace=wrap;html=1;" parent="SAZ4FYaPVu-vmmdpa9ke-1" vertex="1">
          <mxGeometry x="80" y="280" width="120" height="60" as="geometry" />
        </mxCell>
        <mxCell id="wob9f2ZelnJ6U86Qt2ua-17" style="edgeStyle=orthogonalEdgeStyle;rounded=0;orthogonalLoop=1;jettySize=auto;html=1;exitX=1;exitY=0.5;exitDx=0;exitDy=0;entryX=0;entryY=0.5;entryDx=0;entryDy=0;" parent="SAZ4FYaPVu-vmmdpa9ke-1" source="YLw-xi9G1kMh6d737cpB-1" target="SAZ4FYaPVu-vmmdpa9ke-4" edge="1">
          <mxGeometry relative="1" as="geometry">
            <Array as="points">
              <mxPoint x="530" y="310" />
              <mxPoint x="530" y="190" />
            </Array>
          </mxGeometry>
        </mxCell>
        <mxCell id="YLw-xi9G1kMh6d737cpB-1" value="APISIX Gateway (Балансировщик)" style="rounded=1;whiteSpace=wrap;html=1;" parent="SAZ4FYaPVu-vmmdpa9ke-1" vertex="1">
          <mxGeometry x="280" y="280" width="120" height="60" as="geometry" />
        </mxCell>
        <mxCell id="YLw-xi9G1kMh6d737cpB-3" value="Service registry (Hashicorp Consul)" style="rounded=1;whiteSpace=wrap;html=1;" parent="SAZ4FYaPVu-vmmdpa9ke-1" vertex="1">
          <mxGeometry x="360" y="500" width="120" height="60" as="geometry" />
        </mxCell>
        <mxCell id="YLw-xi9G1kMh6d737cpB-6" value="&lt;font style=&quot;font-size: 27px;&quot;&gt;...&lt;/font&gt;" style="text;html=1;align=center;verticalAlign=middle;whiteSpace=wrap;rounded=0;" parent="SAZ4FYaPVu-vmmdpa9ke-1" vertex="1">
          <mxGeometry x="780" y="280" width="30" height="30" as="geometry" />
        </mxCell>
        <mxCell id="YLw-xi9G1kMh6d737cpB-9" value="Регистрация" style="text;html=1;align=center;verticalAlign=middle;whiteSpace=wrap;rounded=0;" parent="SAZ4FYaPVu-vmmdpa9ke-1" vertex="1">
          <mxGeometry x="530" y="490" width="60" height="30" as="geometry" />
        </mxCell>
        <mxCell id="YLw-xi9G1kMh6d737cpB-10" value="Регистрация" style="text;html=1;align=center;verticalAlign=middle;whiteSpace=wrap;rounded=0;" parent="SAZ4FYaPVu-vmmdpa9ke-1" vertex="1">
          <mxGeometry x="655" y="520" width="60" height="30" as="geometry" />
        </mxCell>
        <mxCell id="YLw-xi9G1kMh6d737cpB-17" value="Получение IP" style="text;html=1;align=center;verticalAlign=middle;whiteSpace=wrap;rounded=0;" parent="SAZ4FYaPVu-vmmdpa9ke-1" vertex="1">
          <mxGeometry x="340" y="420" width="80" height="30" as="geometry" />
        </mxCell>
        <mxCell id="YLw-xi9G1kMh6d737cpB-18" value="&lt;span style=&quot;color: rgb(0, 0, 0); font-family: Helvetica; font-size: 12px; font-style: normal; font-variant-ligatures: normal; font-variant-caps: normal; letter-spacing: normal; orphans: 2; text-align: center; text-indent: 0px; text-transform: none; widows: 2; word-spacing: 0px; -webkit-text-stroke-width: 0px; white-space: normal; background-color: rgb(251, 251, 251); text-decoration-thickness: initial; text-decoration-style: initial; text-decoration-color: initial; float: none; display: inline !important;&quot;&gt;Instance 1&amp;nbsp;&lt;/span&gt;&lt;span style=&quot;text-align: center;&quot;&gt;(stateless)&lt;/span&gt;" style="text;whiteSpace=wrap;html=1;fontStyle=1" parent="SAZ4FYaPVu-vmmdpa9ke-1" vertex="1">
          <mxGeometry x="600" y="76" width="130" height="30" as="geometry" />
        </mxCell>
        <mxCell id="wob9f2ZelnJ6U86Qt2ua-1" style="edgeStyle=orthogonalEdgeStyle;rounded=0;orthogonalLoop=1;jettySize=auto;html=1;exitX=1;exitY=0.5;exitDx=0;exitDy=0;entryX=0;entryY=0.5;entryDx=0;entryDy=0;startArrow=none;startFill=0;" parent="SAZ4FYaPVu-vmmdpa9ke-1" source="wWxUR6T0LK2J_E-95aPI-0" target="AaDlngqivMevUS80Xex8-0" edge="1">
          <mxGeometry relative="1" as="geometry" />
        </mxCell>
        <mxCell id="wob9f2ZelnJ6U86Qt2ua-2" style="edgeStyle=orthogonalEdgeStyle;rounded=0;orthogonalLoop=1;jettySize=auto;html=1;exitX=1;exitY=0.75;exitDx=0;exitDy=0;entryX=0;entryY=0.5;entryDx=0;entryDy=0;startArrow=none;startFill=0;" parent="SAZ4FYaPVu-vmmdpa9ke-1" source="wWxUR6T0LK2J_E-95aPI-0" target="wob9f2ZelnJ6U86Qt2ua-0" edge="1">
          <mxGeometry relative="1" as="geometry" />
        </mxCell>
        <mxCell id="wWxUR6T0LK2J_E-95aPI-0" value="pymongo-api" style="rounded=1;whiteSpace=wrap;html=1;" parent="SAZ4FYaPVu-vmmdpa9ke-1" vertex="1">
          <mxGeometry x="590" y="160" width="120" height="60" as="geometry" />
        </mxCell>
        <mxCell id="wob9f2ZelnJ6U86Qt2ua-3" style="edgeStyle=orthogonalEdgeStyle;rounded=0;orthogonalLoop=1;jettySize=auto;html=1;exitX=1;exitY=0.5;exitDx=0;exitDy=0;" parent="SAZ4FYaPVu-vmmdpa9ke-1" source="AaDlngqivMevUS80Xex8-0" target="AaDlngqivMevUS80Xex8-2" edge="1">
          <mxGeometry relative="1" as="geometry" />
        </mxCell>
        <mxCell id="AaDlngqivMevUS80Xex8-0" value="Mongos&lt;div&gt;(Router)&lt;/div&gt;" style="rounded=1;whiteSpace=wrap;html=1;" parent="SAZ4FYaPVu-vmmdpa9ke-1" vertex="1">
          <mxGeometry x="750" y="130" width="120" height="60" as="geometry" />
        </mxCell>
        <mxCell id="AaDlngqivMevUS80Xex8-2" value="&lt;font style=&quot;font-size: 27px;&quot;&gt;...&lt;/font&gt;" style="text;html=1;align=center;verticalAlign=middle;whiteSpace=wrap;rounded=0;" parent="SAZ4FYaPVu-vmmdpa9ke-1" vertex="1">
          <mxGeometry x="900" y="145" width="30" height="30" as="geometry" />
        </mxCell>
        <mxCell id="wob9f2ZelnJ6U86Qt2ua-0" value="Redis" style="rounded=1;whiteSpace=wrap;html=1;" parent="SAZ4FYaPVu-vmmdpa9ke-1" vertex="1">
          <mxGeometry x="750" y="200" width="120" height="60" as="geometry" />
        </mxCell>
        <mxCell id="wob9f2ZelnJ6U86Qt2ua-14" style="edgeStyle=orthogonalEdgeStyle;rounded=0;orthogonalLoop=1;jettySize=auto;html=1;exitX=0.25;exitY=1;exitDx=0;exitDy=0;entryX=1;entryY=0.75;entryDx=0;entryDy=0;dashed=1;" parent="SAZ4FYaPVu-vmmdpa9ke-1" source="wob9f2ZelnJ6U86Qt2ua-5" target="YLw-xi9G1kMh6d737cpB-3" edge="1">
          <mxGeometry relative="1" as="geometry" />
        </mxCell>
        <mxCell id="wob9f2ZelnJ6U86Qt2ua-5" value="" style="rounded=1;whiteSpace=wrap;html=1;" parent="SAZ4FYaPVu-vmmdpa9ke-1" vertex="1">
          <mxGeometry x="715" y="345" width="375" height="180" as="geometry" />
        </mxCell>
        <mxCell id="wob9f2ZelnJ6U86Qt2ua-7" style="edgeStyle=orthogonalEdgeStyle;rounded=0;orthogonalLoop=1;jettySize=auto;html=1;exitX=1;exitY=0.5;exitDx=0;exitDy=0;entryX=0;entryY=0.5;entryDx=0;entryDy=0;startArrow=none;startFill=0;" parent="SAZ4FYaPVu-vmmdpa9ke-1" source="wob9f2ZelnJ6U86Qt2ua-9" target="wob9f2ZelnJ6U86Qt2ua-11" edge="1">
          <mxGeometry relative="1" as="geometry" />
        </mxCell>
        <mxCell id="wob9f2ZelnJ6U86Qt2ua-8" style="edgeStyle=orthogonalEdgeStyle;rounded=0;orthogonalLoop=1;jettySize=auto;html=1;exitX=1;exitY=0.75;exitDx=0;exitDy=0;entryX=0;entryY=0.5;entryDx=0;entryDy=0;startArrow=none;startFill=0;" parent="SAZ4FYaPVu-vmmdpa9ke-1" source="wob9f2ZelnJ6U86Qt2ua-9" target="wob9f2ZelnJ6U86Qt2ua-13" edge="1">
          <mxGeometry relative="1" as="geometry" />
        </mxCell>
        <mxCell id="wob9f2ZelnJ6U86Qt2ua-9" value="pymongo-api" style="rounded=1;whiteSpace=wrap;html=1;" parent="SAZ4FYaPVu-vmmdpa9ke-1" vertex="1">
          <mxGeometry x="740" y="405" width="120" height="60" as="geometry" />
        </mxCell>
        <mxCell id="wob9f2ZelnJ6U86Qt2ua-10" style="edgeStyle=orthogonalEdgeStyle;rounded=0;orthogonalLoop=1;jettySize=auto;html=1;exitX=1;exitY=0.5;exitDx=0;exitDy=0;" parent="SAZ4FYaPVu-vmmdpa9ke-1" source="wob9f2ZelnJ6U86Qt2ua-11" target="wob9f2ZelnJ6U86Qt2ua-12" edge="1">
          <mxGeometry relative="1" as="geometry" />
        </mxCell>
        <mxCell id="wob9f2ZelnJ6U86Qt2ua-11" value="Mongos&lt;div&gt;(Router)&lt;/div&gt;" style="rounded=1;whiteSpace=wrap;html=1;" parent="SAZ4FYaPVu-vmmdpa9ke-1" vertex="1">
          <mxGeometry x="900" y="375" width="120" height="60" as="geometry" />
        </mxCell>
        <mxCell id="wob9f2ZelnJ6U86Qt2ua-12" value="&lt;font style=&quot;font-size: 27px;&quot;&gt;...&lt;/font&gt;" style="text;html=1;align=center;verticalAlign=middle;whiteSpace=wrap;rounded=0;" parent="SAZ4FYaPVu-vmmdpa9ke-1" vertex="1">
          <mxGeometry x="1050" y="390" width="30" height="30" as="geometry" />
        </mxCell>
        <mxCell id="wob9f2ZelnJ6U86Qt2ua-13" value="Redis" style="rounded=1;whiteSpace=wrap;html=1;" parent="SAZ4FYaPVu-vmmdpa9ke-1" vertex="1">
          <mxGeometry x="900" y="445" width="120" height="60" as="geometry" />
        </mxCell>
        <mxCell id="wob9f2ZelnJ6U86Qt2ua-16" value="&lt;span style=&quot;color: rgb(0, 0, 0); font-family: Helvetica; font-size: 12px; font-style: normal; font-variant-ligatures: normal; font-variant-caps: normal; letter-spacing: normal; orphans: 2; text-align: center; text-indent: 0px; text-transform: none; widows: 2; word-spacing: 0px; -webkit-text-stroke-width: 0px; white-space: normal; background-color: rgb(251, 251, 251); text-decoration-thickness: initial; text-decoration-style: initial; text-decoration-color: initial; float: none; display: inline !important;&quot;&gt;Instance N&amp;nbsp;&lt;/span&gt;&lt;span style=&quot;text-align: center;&quot;&gt;(stateless)&lt;/span&gt;" style="text;whiteSpace=wrap;html=1;fontStyle=1" parent="SAZ4FYaPVu-vmmdpa9ke-1" vertex="1">
          <mxGeometry x="740" y="320" width="130" height="30" as="geometry" />
        </mxCell>
        <mxCell id="wob9f2ZelnJ6U86Qt2ua-18" style="edgeStyle=orthogonalEdgeStyle;rounded=0;orthogonalLoop=1;jettySize=auto;html=1;exitX=1;exitY=0.5;exitDx=0;exitDy=0;entryX=0;entryY=0.55;entryDx=0;entryDy=0;entryPerimeter=0;" parent="SAZ4FYaPVu-vmmdpa9ke-1" source="YLw-xi9G1kMh6d737cpB-1" target="wob9f2ZelnJ6U86Qt2ua-5" edge="1">
          <mxGeometry relative="1" as="geometry">
            <Array as="points">
              <mxPoint x="530" y="310" />
              <mxPoint x="530" y="444" />
            </Array>
          </mxGeometry>
        </mxCell>
        <mxCell id="wob9f2ZelnJ6U86Qt2ua-19" value="Выбор сервера и перенаправление запроса" style="text;html=1;align=center;verticalAlign=middle;whiteSpace=wrap;rounded=0;" parent="SAZ4FYaPVu-vmmdpa9ke-1" vertex="1">
          <mxGeometry x="410" y="270" width="120" height="30" as="geometry" />
        </mxCell>
        <mxCell id="wob9f2ZelnJ6U86Qt2ua-22" style="edgeStyle=orthogonalEdgeStyle;rounded=0;orthogonalLoop=1;jettySize=auto;html=1;exitX=0.5;exitY=1;exitDx=0;exitDy=0;entryX=0.5;entryY=0;entryDx=0;entryDy=0;" parent="SAZ4FYaPVu-vmmdpa9ke-1" source="wob9f2ZelnJ6U86Qt2ua-21" target="YLw-xi9G1kMh6d737cpB-3" edge="1">
          <mxGeometry relative="1" as="geometry" />
        </mxCell>
        <mxCell id="wob9f2ZelnJ6U86Qt2ua-21" value="konsul_kv" style="rounded=1;whiteSpace=wrap;html=1;" parent="SAZ4FYaPVu-vmmdpa9ke-1" vertex="1">
          <mxGeometry x="290" y="330" width="100" height="20" as="geometry" />
        </mxCell>
        <mxCell id="5n50C7AFKlHFFCoyw6Ub-1" value="Синхронизация данных" style="text;html=1;align=center;verticalAlign=middle;whiteSpace=wrap;rounded=0;" parent="SAZ4FYaPVu-vmmdpa9ke-1" vertex="1">
          <mxGeometry x="990" y="200" width="120" height="30" as="geometry" />
        </mxCell>
      </root>
    </mxGraphModel>
  </diagram>
  <diagram name="5 - CDN" id="H1RYbeT5Zs7UPizD7sf0">
    <mxGraphModel dx="1434" dy="854" grid="1" gridSize="10" guides="1" tooltips="1" connect="1" arrows="1" fold="1" page="1" pageScale="1" pageWidth="1169" pageHeight="827" math="0" shadow="0">
      <root>
        <mxCell id="Rrj_BQTu7kNXsp0owsC8-0" />
        <mxCell id="Rrj_BQTu7kNXsp0owsC8-1" parent="Rrj_BQTu7kNXsp0owsC8-0" />
        <mxCell id="Rrj_BQTu7kNXsp0owsC8-2" style="edgeStyle=orthogonalEdgeStyle;rounded=0;orthogonalLoop=1;jettySize=auto;html=1;exitX=0.25;exitY=1;exitDx=0;exitDy=0;entryX=1;entryY=0.25;entryDx=0;entryDy=0;dashed=1;" parent="Rrj_BQTu7kNXsp0owsC8-1" source="Rrj_BQTu7kNXsp0owsC8-4" target="Rrj_BQTu7kNXsp0owsC8-9" edge="1">
          <mxGeometry relative="1" as="geometry" />
        </mxCell>
        <mxCell id="Rrj_BQTu7kNXsp0owsC8-3" style="edgeStyle=orthogonalEdgeStyle;rounded=0;orthogonalLoop=1;jettySize=auto;html=1;exitX=1;exitY=0.5;exitDx=0;exitDy=0;entryX=1;entryY=0.5;entryDx=0;entryDy=0;startArrow=classic;startFill=1;" parent="Rrj_BQTu7kNXsp0owsC8-1" source="Rrj_BQTu7kNXsp0owsC8-4" target="Rrj_BQTu7kNXsp0owsC8-23" edge="1">
          <mxGeometry relative="1" as="geometry" />
        </mxCell>
        <mxCell id="Rrj_BQTu7kNXsp0owsC8-4" value="" style="rounded=1;whiteSpace=wrap;html=1;" parent="Rrj_BQTu7kNXsp0owsC8-1" vertex="1">
          <mxGeometry x="740" y="100" width="370" height="180" as="geometry" />
        </mxCell>
        <mxCell id="lcQmkhERQ1EJAYJBndt9-16" style="edgeStyle=orthogonalEdgeStyle;rounded=0;orthogonalLoop=1;jettySize=auto;html=1;exitX=1;exitY=0.5;exitDx=0;exitDy=0;entryX=0;entryY=0.5;entryDx=0;entryDy=0;" parent="Rrj_BQTu7kNXsp0owsC8-1" source="Rrj_BQTu7kNXsp0owsC8-6" target="Rrj_BQTu7kNXsp0owsC8-8" edge="1">
          <mxGeometry relative="1" as="geometry">
            <Array as="points">
              <mxPoint x="200" y="190" />
              <mxPoint x="200" y="310" />
            </Array>
          </mxGeometry>
        </mxCell>
        <mxCell id="lcQmkhERQ1EJAYJBndt9-18" style="edgeStyle=orthogonalEdgeStyle;rounded=0;orthogonalLoop=1;jettySize=auto;html=1;exitX=0.75;exitY=0;exitDx=0;exitDy=0;entryX=0.5;entryY=0;entryDx=0;entryDy=0;" parent="Rrj_BQTu7kNXsp0owsC8-1" source="Rrj_BQTu7kNXsp0owsC8-6" target="lcQmkhERQ1EJAYJBndt9-1" edge="1">
          <mxGeometry relative="1" as="geometry" />
        </mxCell>
        <mxCell id="Rrj_BQTu7kNXsp0owsC8-6" value="Клиент из&amp;nbsp;&lt;div&gt;России&lt;/div&gt;" style="rounded=1;whiteSpace=wrap;html=1;" parent="Rrj_BQTu7kNXsp0owsC8-1" vertex="1">
          <mxGeometry x="40" y="160" width="120" height="60" as="geometry" />
        </mxCell>
        <mxCell id="Rrj_BQTu7kNXsp0owsC8-7" style="edgeStyle=orthogonalEdgeStyle;rounded=0;orthogonalLoop=1;jettySize=auto;html=1;exitX=1;exitY=0.5;exitDx=0;exitDy=0;entryX=0;entryY=0.5;entryDx=0;entryDy=0;" parent="Rrj_BQTu7kNXsp0owsC8-1" source="Rrj_BQTu7kNXsp0owsC8-8" target="Rrj_BQTu7kNXsp0owsC8-4" edge="1">
          <mxGeometry relative="1" as="geometry">
            <Array as="points">
              <mxPoint x="700" y="310" />
              <mxPoint x="700" y="190" />
            </Array>
          </mxGeometry>
        </mxCell>
        <mxCell id="Rrj_BQTu7kNXsp0owsC8-8" value="APISIX Gateway (Балансировщик)" style="rounded=1;whiteSpace=wrap;html=1;" parent="Rrj_BQTu7kNXsp0owsC8-1" vertex="1">
          <mxGeometry x="450" y="280" width="120" height="60" as="geometry" />
        </mxCell>
        <mxCell id="Rrj_BQTu7kNXsp0owsC8-9" value="Service registry (Hashicorp Consul)" style="rounded=1;whiteSpace=wrap;html=1;" parent="Rrj_BQTu7kNXsp0owsC8-1" vertex="1">
          <mxGeometry x="530" y="500" width="120" height="60" as="geometry" />
        </mxCell>
        <mxCell id="Rrj_BQTu7kNXsp0owsC8-10" value="&lt;font style=&quot;font-size: 27px;&quot;&gt;...&lt;/font&gt;" style="text;html=1;align=center;verticalAlign=middle;whiteSpace=wrap;rounded=0;" parent="Rrj_BQTu7kNXsp0owsC8-1" vertex="1">
          <mxGeometry x="950" y="278" width="30" height="30" as="geometry" />
        </mxCell>
        <mxCell id="Rrj_BQTu7kNXsp0owsC8-11" value="Регистрация" style="text;html=1;align=center;verticalAlign=middle;whiteSpace=wrap;rounded=0;" parent="Rrj_BQTu7kNXsp0owsC8-1" vertex="1">
          <mxGeometry x="700" y="490" width="60" height="30" as="geometry" />
        </mxCell>
        <mxCell id="Rrj_BQTu7kNXsp0owsC8-12" value="Регистрация" style="text;html=1;align=center;verticalAlign=middle;whiteSpace=wrap;rounded=0;" parent="Rrj_BQTu7kNXsp0owsC8-1" vertex="1">
          <mxGeometry x="825" y="520" width="60" height="30" as="geometry" />
        </mxCell>
        <mxCell id="Rrj_BQTu7kNXsp0owsC8-13" value="Получение IP" style="text;html=1;align=center;verticalAlign=middle;whiteSpace=wrap;rounded=0;" parent="Rrj_BQTu7kNXsp0owsC8-1" vertex="1">
          <mxGeometry x="510" y="420" width="80" height="30" as="geometry" />
        </mxCell>
        <mxCell id="Rrj_BQTu7kNXsp0owsC8-15" style="edgeStyle=orthogonalEdgeStyle;rounded=0;orthogonalLoop=1;jettySize=auto;html=1;exitX=1;exitY=0.5;exitDx=0;exitDy=0;entryX=0;entryY=0.5;entryDx=0;entryDy=0;startArrow=none;startFill=0;" parent="Rrj_BQTu7kNXsp0owsC8-1" source="Rrj_BQTu7kNXsp0owsC8-17" target="Rrj_BQTu7kNXsp0owsC8-19" edge="1">
          <mxGeometry relative="1" as="geometry" />
        </mxCell>
        <mxCell id="Rrj_BQTu7kNXsp0owsC8-16" style="edgeStyle=orthogonalEdgeStyle;rounded=0;orthogonalLoop=1;jettySize=auto;html=1;exitX=1;exitY=0.75;exitDx=0;exitDy=0;entryX=0;entryY=0.5;entryDx=0;entryDy=0;startArrow=none;startFill=0;" parent="Rrj_BQTu7kNXsp0owsC8-1" source="Rrj_BQTu7kNXsp0owsC8-17" target="Rrj_BQTu7kNXsp0owsC8-21" edge="1">
          <mxGeometry relative="1" as="geometry" />
        </mxCell>
        <mxCell id="Rrj_BQTu7kNXsp0owsC8-17" value="pymongo-api" style="rounded=1;whiteSpace=wrap;html=1;" parent="Rrj_BQTu7kNXsp0owsC8-1" vertex="1">
          <mxGeometry x="760" y="160" width="120" height="60" as="geometry" />
        </mxCell>
        <mxCell id="Rrj_BQTu7kNXsp0owsC8-18" style="edgeStyle=orthogonalEdgeStyle;rounded=0;orthogonalLoop=1;jettySize=auto;html=1;exitX=1;exitY=0.5;exitDx=0;exitDy=0;" parent="Rrj_BQTu7kNXsp0owsC8-1" source="Rrj_BQTu7kNXsp0owsC8-19" target="Rrj_BQTu7kNXsp0owsC8-20" edge="1">
          <mxGeometry relative="1" as="geometry" />
        </mxCell>
        <mxCell id="Rrj_BQTu7kNXsp0owsC8-19" value="Mongos&lt;div&gt;(Router)&lt;/div&gt;" style="rounded=1;whiteSpace=wrap;html=1;" parent="Rrj_BQTu7kNXsp0owsC8-1" vertex="1">
          <mxGeometry x="920" y="130" width="120" height="60" as="geometry" />
        </mxCell>
        <mxCell id="Rrj_BQTu7kNXsp0owsC8-20" value="&lt;font style=&quot;font-size: 27px;&quot;&gt;...&lt;/font&gt;" style="text;html=1;align=center;verticalAlign=middle;whiteSpace=wrap;rounded=0;" parent="Rrj_BQTu7kNXsp0owsC8-1" vertex="1">
          <mxGeometry x="1070" y="145" width="30" height="30" as="geometry" />
        </mxCell>
        <mxCell id="Rrj_BQTu7kNXsp0owsC8-21" value="Redis" style="rounded=1;whiteSpace=wrap;html=1;" parent="Rrj_BQTu7kNXsp0owsC8-1" vertex="1">
          <mxGeometry x="920" y="200" width="120" height="60" as="geometry" />
        </mxCell>
        <mxCell id="Rrj_BQTu7kNXsp0owsC8-22" style="edgeStyle=orthogonalEdgeStyle;rounded=0;orthogonalLoop=1;jettySize=auto;html=1;exitX=0.25;exitY=1;exitDx=0;exitDy=0;entryX=1;entryY=0.75;entryDx=0;entryDy=0;dashed=1;" parent="Rrj_BQTu7kNXsp0owsC8-1" source="Rrj_BQTu7kNXsp0owsC8-23" target="Rrj_BQTu7kNXsp0owsC8-9" edge="1">
          <mxGeometry relative="1" as="geometry" />
        </mxCell>
        <mxCell id="Rrj_BQTu7kNXsp0owsC8-23" value="" style="rounded=1;whiteSpace=wrap;html=1;" parent="Rrj_BQTu7kNXsp0owsC8-1" vertex="1">
          <mxGeometry x="885" y="345" width="375" height="180" as="geometry" />
        </mxCell>
        <mxCell id="Rrj_BQTu7kNXsp0owsC8-24" style="edgeStyle=orthogonalEdgeStyle;rounded=0;orthogonalLoop=1;jettySize=auto;html=1;exitX=1;exitY=0.5;exitDx=0;exitDy=0;entryX=0;entryY=0.5;entryDx=0;entryDy=0;startArrow=none;startFill=0;" parent="Rrj_BQTu7kNXsp0owsC8-1" source="Rrj_BQTu7kNXsp0owsC8-26" target="Rrj_BQTu7kNXsp0owsC8-28" edge="1">
          <mxGeometry relative="1" as="geometry" />
        </mxCell>
        <mxCell id="Rrj_BQTu7kNXsp0owsC8-25" style="edgeStyle=orthogonalEdgeStyle;rounded=0;orthogonalLoop=1;jettySize=auto;html=1;exitX=1;exitY=0.75;exitDx=0;exitDy=0;entryX=0;entryY=0.5;entryDx=0;entryDy=0;startArrow=none;startFill=0;" parent="Rrj_BQTu7kNXsp0owsC8-1" source="Rrj_BQTu7kNXsp0owsC8-26" target="Rrj_BQTu7kNXsp0owsC8-30" edge="1">
          <mxGeometry relative="1" as="geometry" />
        </mxCell>
        <mxCell id="Rrj_BQTu7kNXsp0owsC8-26" value="pymongo-api" style="rounded=1;whiteSpace=wrap;html=1;" parent="Rrj_BQTu7kNXsp0owsC8-1" vertex="1">
          <mxGeometry x="910" y="405" width="120" height="60" as="geometry" />
        </mxCell>
        <mxCell id="Rrj_BQTu7kNXsp0owsC8-27" style="edgeStyle=orthogonalEdgeStyle;rounded=0;orthogonalLoop=1;jettySize=auto;html=1;exitX=1;exitY=0.5;exitDx=0;exitDy=0;" parent="Rrj_BQTu7kNXsp0owsC8-1" source="Rrj_BQTu7kNXsp0owsC8-28" target="Rrj_BQTu7kNXsp0owsC8-29" edge="1">
          <mxGeometry relative="1" as="geometry" />
        </mxCell>
        <mxCell id="Rrj_BQTu7kNXsp0owsC8-28" value="Mongos&lt;div&gt;(Router)&lt;/div&gt;" style="rounded=1;whiteSpace=wrap;html=1;" parent="Rrj_BQTu7kNXsp0owsC8-1" vertex="1">
          <mxGeometry x="1070" y="375" width="120" height="60" as="geometry" />
        </mxCell>
        <mxCell id="Rrj_BQTu7kNXsp0owsC8-29" value="&lt;font style=&quot;font-size: 27px;&quot;&gt;...&lt;/font&gt;" style="text;html=1;align=center;verticalAlign=middle;whiteSpace=wrap;rounded=0;" parent="Rrj_BQTu7kNXsp0owsC8-1" vertex="1">
          <mxGeometry x="1220" y="390" width="30" height="30" as="geometry" />
        </mxCell>
        <mxCell id="Rrj_BQTu7kNXsp0owsC8-30" value="Redis" style="rounded=1;whiteSpace=wrap;html=1;" parent="Rrj_BQTu7kNXsp0owsC8-1" vertex="1">
          <mxGeometry x="1070" y="445" width="120" height="60" as="geometry" />
        </mxCell>
        <mxCell id="Rrj_BQTu7kNXsp0owsC8-32" style="edgeStyle=orthogonalEdgeStyle;rounded=0;orthogonalLoop=1;jettySize=auto;html=1;exitX=1;exitY=0.5;exitDx=0;exitDy=0;entryX=0;entryY=0.55;entryDx=0;entryDy=0;entryPerimeter=0;" parent="Rrj_BQTu7kNXsp0owsC8-1" source="Rrj_BQTu7kNXsp0owsC8-8" target="Rrj_BQTu7kNXsp0owsC8-23" edge="1">
          <mxGeometry relative="1" as="geometry">
            <Array as="points">
              <mxPoint x="700" y="310" />
              <mxPoint x="700" y="444" />
            </Array>
          </mxGeometry>
        </mxCell>
        <mxCell id="Rrj_BQTu7kNXsp0owsC8-33" value="Выбор сервера и перенаправление запроса" style="text;html=1;align=center;verticalAlign=middle;whiteSpace=wrap;rounded=0;" parent="Rrj_BQTu7kNXsp0owsC8-1" vertex="1">
          <mxGeometry x="580" y="270" width="120" height="30" as="geometry" />
        </mxCell>
        <mxCell id="Rrj_BQTu7kNXsp0owsC8-34" style="edgeStyle=orthogonalEdgeStyle;rounded=0;orthogonalLoop=1;jettySize=auto;html=1;exitX=0.5;exitY=1;exitDx=0;exitDy=0;entryX=0.5;entryY=0;entryDx=0;entryDy=0;" parent="Rrj_BQTu7kNXsp0owsC8-1" source="Rrj_BQTu7kNXsp0owsC8-35" target="Rrj_BQTu7kNXsp0owsC8-9" edge="1">
          <mxGeometry relative="1" as="geometry" />
        </mxCell>
        <mxCell id="Rrj_BQTu7kNXsp0owsC8-35" value="konsul_kv" style="rounded=1;whiteSpace=wrap;html=1;" parent="Rrj_BQTu7kNXsp0owsC8-1" vertex="1">
          <mxGeometry x="460" y="330" width="100" height="20" as="geometry" />
        </mxCell>
        <mxCell id="Rrj_BQTu7kNXsp0owsC8-36" value="Синхронизация данных" style="text;html=1;align=center;verticalAlign=middle;whiteSpace=wrap;rounded=0;" parent="Rrj_BQTu7kNXsp0owsC8-1" vertex="1">
          <mxGeometry x="1160" y="200" width="120" height="30" as="geometry" />
        </mxCell>
        <mxCell id="lcQmkhERQ1EJAYJBndt9-21" style="edgeStyle=orthogonalEdgeStyle;rounded=0;orthogonalLoop=1;jettySize=auto;html=1;exitX=1;exitY=0.5;exitDx=0;exitDy=0;entryX=0;entryY=0.5;entryDx=0;entryDy=0;" parent="Rrj_BQTu7kNXsp0owsC8-1" source="lcQmkhERQ1EJAYJBndt9-0" target="Rrj_BQTu7kNXsp0owsC8-8" edge="1">
          <mxGeometry relative="1" as="geometry">
            <Array as="points">
              <mxPoint x="200" y="470" />
              <mxPoint x="200" y="310" />
            </Array>
          </mxGeometry>
        </mxCell>
        <mxCell id="lcQmkhERQ1EJAYJBndt9-22" style="edgeStyle=orthogonalEdgeStyle;rounded=0;orthogonalLoop=1;jettySize=auto;html=1;exitX=0.75;exitY=1;exitDx=0;exitDy=0;entryX=0.25;entryY=1;entryDx=0;entryDy=0;" parent="Rrj_BQTu7kNXsp0owsC8-1" source="lcQmkhERQ1EJAYJBndt9-0" target="lcQmkhERQ1EJAYJBndt9-10" edge="1">
          <mxGeometry relative="1" as="geometry" />
        </mxCell>
        <mxCell id="lcQmkhERQ1EJAYJBndt9-0" value="Клиент из&amp;nbsp;&lt;div&gt;Гватемалы&lt;/div&gt;" style="rounded=1;whiteSpace=wrap;html=1;" parent="Rrj_BQTu7kNXsp0owsC8-1" vertex="1">
          <mxGeometry x="40" y="440" width="120" height="60" as="geometry" />
        </mxCell>
        <mxCell id="lcQmkhERQ1EJAYJBndt9-25" style="edgeStyle=orthogonalEdgeStyle;rounded=0;orthogonalLoop=1;jettySize=auto;html=1;exitX=1;exitY=0.5;exitDx=0;exitDy=0;entryX=0;entryY=0.25;entryDx=0;entryDy=0;" parent="Rrj_BQTu7kNXsp0owsC8-1" source="lcQmkhERQ1EJAYJBndt9-1" target="Rrj_BQTu7kNXsp0owsC8-8" edge="1">
          <mxGeometry relative="1" as="geometry" />
        </mxCell>
        <mxCell id="lcQmkhERQ1EJAYJBndt9-1" value="" style="rounded=1;whiteSpace=wrap;html=1;" parent="Rrj_BQTu7kNXsp0owsC8-1" vertex="1">
          <mxGeometry x="240" y="160" width="120" height="120" as="geometry" />
        </mxCell>
        <mxCell id="lcQmkhERQ1EJAYJBndt9-3" value="Региональный&lt;div&gt;CDN сервер&lt;/div&gt;" style="text;html=1;align=center;verticalAlign=middle;whiteSpace=wrap;rounded=0;" parent="Rrj_BQTu7kNXsp0owsC8-1" vertex="1">
          <mxGeometry x="240" y="170" width="120" height="30" as="geometry" />
        </mxCell>
        <mxCell id="lcQmkhERQ1EJAYJBndt9-4" value="Кэш" style="rounded=1;whiteSpace=wrap;html=1;" parent="Rrj_BQTu7kNXsp0owsC8-1" vertex="1">
          <mxGeometry x="260" y="230" width="80" height="40" as="geometry" />
        </mxCell>
        <mxCell id="lcQmkhERQ1EJAYJBndt9-24" style="edgeStyle=orthogonalEdgeStyle;rounded=0;orthogonalLoop=1;jettySize=auto;html=1;exitX=1;exitY=0.5;exitDx=0;exitDy=0;entryX=0;entryY=0.75;entryDx=0;entryDy=0;" parent="Rrj_BQTu7kNXsp0owsC8-1" source="lcQmkhERQ1EJAYJBndt9-10" target="Rrj_BQTu7kNXsp0owsC8-8" edge="1">
          <mxGeometry relative="1" as="geometry" />
        </mxCell>
        <mxCell id="lcQmkhERQ1EJAYJBndt9-10" value="" style="rounded=1;whiteSpace=wrap;html=1;" parent="Rrj_BQTu7kNXsp0owsC8-1" vertex="1">
          <mxGeometry x="240" y="380" width="120" height="120" as="geometry" />
        </mxCell>
        <mxCell id="lcQmkhERQ1EJAYJBndt9-11" value="Региональный&lt;div&gt;CDN сервер&lt;/div&gt;" style="text;html=1;align=center;verticalAlign=middle;whiteSpace=wrap;rounded=0;" parent="Rrj_BQTu7kNXsp0owsC8-1" vertex="1">
          <mxGeometry x="240" y="390" width="120" height="30" as="geometry" />
        </mxCell>
        <mxCell id="lcQmkhERQ1EJAYJBndt9-12" value="Кэш" style="rounded=1;whiteSpace=wrap;html=1;" parent="Rrj_BQTu7kNXsp0owsC8-1" vertex="1">
          <mxGeometry x="260" y="450" width="80" height="40" as="geometry" />
        </mxCell>
        <mxCell id="lcQmkhERQ1EJAYJBndt9-19" value="Статический контент" style="text;html=1;align=center;verticalAlign=middle;whiteSpace=wrap;rounded=0;" parent="Rrj_BQTu7kNXsp0owsC8-1" vertex="1">
          <mxGeometry x="150" y="110" width="120" height="30" as="geometry" />
        </mxCell>
        <mxCell id="lcQmkhERQ1EJAYJBndt9-20" value="Динамический контент" style="text;html=1;align=center;verticalAlign=middle;whiteSpace=wrap;rounded=0;" parent="Rrj_BQTu7kNXsp0owsC8-1" vertex="1">
          <mxGeometry x="200" y="310" width="150" height="30" as="geometry" />
        </mxCell>
        <mxCell id="lcQmkhERQ1EJAYJBndt9-23" value="Статический контент" style="text;html=1;align=center;verticalAlign=middle;whiteSpace=wrap;rounded=0;" parent="Rrj_BQTu7kNXsp0owsC8-1" vertex="1">
          <mxGeometry x="140" y="520" width="120" height="30" as="geometry" />
        </mxCell>
        <mxCell id="lcQmkhERQ1EJAYJBndt9-26" value="Обновление кэша" style="text;html=1;align=center;verticalAlign=middle;whiteSpace=wrap;rounded=0;" parent="Rrj_BQTu7kNXsp0owsC8-1" vertex="1">
          <mxGeometry x="370" y="190" width="120" height="30" as="geometry" />
        </mxCell>
        <mxCell id="lcQmkhERQ1EJAYJBndt9-27" value="Обновление кэша" style="text;html=1;align=center;verticalAlign=middle;whiteSpace=wrap;rounded=0;" parent="Rrj_BQTu7kNXsp0owsC8-1" vertex="1">
          <mxGeometry x="370" y="445" width="120" height="30" as="geometry" />
        </mxCell>
        <mxCell id="5s06MwJnMhn5EzxuEKch-0" value="&lt;span style=&quot;color: rgb(0, 0, 0); font-family: Helvetica; font-size: 12px; font-style: normal; font-variant-ligatures: normal; font-variant-caps: normal; letter-spacing: normal; orphans: 2; text-align: center; text-indent: 0px; text-transform: none; widows: 2; word-spacing: 0px; -webkit-text-stroke-width: 0px; white-space: normal; background-color: rgb(251, 251, 251); text-decoration-thickness: initial; text-decoration-style: initial; text-decoration-color: initial; float: none; display: inline !important;&quot;&gt;Instance 1&amp;nbsp;&lt;/span&gt;&lt;span style=&quot;text-align: center;&quot;&gt;(stateless)&lt;/span&gt;" style="text;whiteSpace=wrap;html=1;fontStyle=1" parent="Rrj_BQTu7kNXsp0owsC8-1" vertex="1">
          <mxGeometry x="770" y="77" width="130" height="30" as="geometry" />
        </mxCell>
        <mxCell id="lgwOhuiK0HEveOP3w0vN-0" value="&lt;span style=&quot;color: rgb(0, 0, 0); font-family: Helvetica; font-size: 12px; font-style: normal; font-variant-ligatures: normal; font-variant-caps: normal; letter-spacing: normal; orphans: 2; text-align: center; text-indent: 0px; text-transform: none; widows: 2; word-spacing: 0px; -webkit-text-stroke-width: 0px; white-space: normal; background-color: rgb(251, 251, 251); text-decoration-thickness: initial; text-decoration-style: initial; text-decoration-color: initial; float: none; display: inline !important;&quot;&gt;Instance N&amp;nbsp;&lt;/span&gt;&lt;span style=&quot;text-align: center;&quot;&gt;(stateless)&lt;/span&gt;" style="text;whiteSpace=wrap;html=1;fontStyle=1" parent="Rrj_BQTu7kNXsp0owsC8-1" vertex="1">
          <mxGeometry x="920" y="320" width="130" height="30" as="geometry" />
        </mxCell>
      </root>
    </mxGraphModel>
  </diagram>
</mxfile>
